<?xml version="1.0" encoding="UTF-8"?>
<!DOCTYPE svg PUBLIC "-//W3C//DTD SVG 1.1//EN" "http://www.w3.org/Graphics/SVG/1.1/DTD/svg11.dtd">
<svg version="1.1" xmlns="http://www.w3.org/2000/svg" xmlns:xlink="http://www.w3.org/1999/xlink" x="0" y="0" width="684" height="288" viewBox="0, 0, 684, 288">
  <g id="Layer_1">
    <g>
      <path d="M353.2,132.683 L353.2,128.613 C353.2,113.983 342.64,104.633 327.13,104.633 C311.07,104.633 299.96,116.183 299.96,131.253 C299.96,150.173 313.16,158.753 329.44,158.753 C336.37,158.753 344.29,157.433 350.01,152.813 L351.88,142.363 C346.6,146.103 338.9,149.073 333.29,149.073 C325.7,149.073 315.58,145.003 315.58,132.683 z M316.02,124.323 C316.02,117.283 320.2,113.653 326.8,113.653 C333.4,113.653 337.58,117.283 337.58,124.323 z" fill="#0096D2"/>
      <path d="M363.73,157.653 C367.8,157.323 371.87,156.993 376.6,156.993 C380.67,156.993 384.74,157.323 388.81,157.653 L388.81,155.563 C386.5,155.563 383.53,154.683 383.53,150.833 L383.53,126.963 C383.53,121.023 387.49,116.293 392.22,116.293 C395.96,116.293 398.27,118.163 398.27,123.333 L398.27,148.743 C398.27,154.683 396.4,155.563 393.43,155.563 L393.43,157.653 C397.5,157.323 401.57,156.993 406.3,156.993 C410.37,156.993 414.44,157.323 419.39,157.653 L419.39,155.563 C416.2,155.563 413.23,154.683 413.23,150.833 L413.23,125.973 C413.23,119.483 416.86,116.293 420.82,116.293 C425.11,116.293 427.42,119.043 427.42,124.433 L427.42,131.473 C427.42,145.993 427.09,154.463 426.98,157.653 C430.72,157.323 434.02,156.993 437.43,156.993 C440.95,156.993 444.14,157.323 447.44,157.653 L447.44,155.563 C443.81,155.563 442.38,153.803 442.38,149.843 L442.38,123.333 C442.38,108.373 436.33,104.633 425.77,104.633 C419.5,104.633 413.78,108.373 411.03,114.313 C408.5,107.053 404.43,104.633 397.39,104.633 C391.89,104.633 385.29,107.603 382.87,114.203 L382.65,114.203 L382.87,102.983 C376.6,105.513 369.34,107.273 363.51,108.483 L363.51,110.573 C366.15,110.573 368.57,111.233 368.57,115.633 L368.57,148.743 C368.57,154.683 366.7,155.563 363.73,155.563 z" fill="#0096D2"/>
      <path d="M463.91,150.283 C463.91,153.363 462.59,154.793 458.85,154.903 L458.85,156.993 L513.08,156.993 C513.19,149.843 514.4,142.803 515.72,135.653 L513.08,135.653 C511.21,144.013 508.24,147.313 500.98,147.313 L480.19,147.313 L480.19,94.733 C480.19,91.653 480.96,88.903 486.57,88.683 L486.57,86.593 C483.38,86.923 476.67,87.253 472.05,87.253 C467.98,87.253 463.69,86.923 458.85,86.593 L458.85,88.683 C462.59,88.793 463.91,90.223 463.91,93.303 z" fill="#0096D2"/>
      <path d="M526.14,123.223 L528.23,123.223 C532.19,115.193 536.37,112.993 545.17,112.993 C550.45,112.993 555.18,115.083 555.18,120.693 C555.18,124.103 554.41,124.433 544.29,125.643 C534.61,126.853 520.2,128.503 520.2,143.353 C520.2,152.923 526.91,158.753 536.37,158.753 C545.83,158.753 550.78,157.433 556.28,149.403 L556.5,149.293 L556.5,157.653 C559.8,157.323 563.1,156.993 566.07,156.993 C569.26,156.993 572.56,157.323 575.86,157.653 L575.86,155.563 C572.34,155.563 570.14,154.023 570.14,150.283 L570.14,123.773 C570.14,107.933 559.14,104.633 546.38,104.633 C538.9,104.633 532.52,106.173 526.58,108.263 z M555.18,137.083 C555.18,144.013 548.25,149.073 542.97,149.073 C538.57,149.073 535.16,146.763 535.16,142.363 C535.16,137.193 539.01,134.553 555.18,131.913 z" fill="#0096D2"/>
      <path d="M617.63,149.733 C611.25,149.733 605.64,144.233 605.64,132.023 C605.64,121.353 609.27,115.193 617.96,115.193 C625.11,115.193 629.4,121.793 629.4,132.353 C629.4,142.913 624.67,149.733 617.63,149.733 z M585.07,84.833 C589.25,85.603 591.01,85.933 591.01,93.963 L591.01,139.613 C591.01,144.013 590.68,153.033 589.69,157.653 L591.45,157.653 C594.09,155.673 596.29,152.813 598.82,149.843 C603.11,155.013 608.17,158.753 618.07,158.753 C630.72,158.753 644.36,148.413 644.36,130.813 C644.36,117.173 635.34,104.633 621.15,104.633 C615.32,104.633 610.26,107.273 605.97,111.563 L605.97,76.693 C599.48,79.773 592.66,81.973 585.07,82.743 z" fill="#0096D2"/>
    </g>
    <g>
      <path d="M276.259,123.895 C276.259,123.895 287.509,170.645 255.558,220.895 C223.607,271.145 165.009,278.645 165.009,278.645 C165.009,278.645 159.759,271.395 153.676,240.562 C147.593,209.729 147.759,191.895 147.759,191.895 C147.759,191.895 170.009,163.395 207.263,145.145 C244.516,126.895 276.259,123.895 276.259,123.895 z M232.482,151.999 C232.482,151.999 233.988,161.376 233.593,166.853 C233.198,172.331 232.937,174.036 230.237,179.842 C227.537,185.648 226.279,186.244 221.766,188.764 C217.254,191.284 203.967,192.345 197.422,198.282 C190.877,204.219 189.222,206.749 185.728,212.877 C182.234,219.005 179.468,226.697 180.107,227.648 C180.747,228.599 182.335,227.956 182.335,227.956 C182.335,227.956 181.832,230.321 182.636,231.249 C183.441,232.177 189.949,231.874 195.653,230.644 C201.357,229.413 205.163,227.828 212.211,223.07 C219.26,218.312 223.79,211.202 226.064,207.125 C228.339,203.048 234.317,184.89 234.317,184.89 C234.317,184.89 237.171,177.811 239.436,176.028 C241.702,174.245 245.924,173.226 245.924,173.226 C245.924,173.226 244.499,170.302 242.301,170.198 C240.102,170.095 237.362,170.903 237.362,170.903 L238.028,164.97 C238.028,164.97 238.393,159.288 237.521,156.702 C236.648,154.116 232.482,151.999 232.482,151.999 z M231.663,215.129 C225.602,216.199 221.979,222.324 217.361,225.845 C212.525,229.667 208.859,231.019 208.859,231.019 C208.859,231.019 213.167,232.774 218.902,229.587 C224.637,226.4 227.846,219.609 232.031,219.166 C236.216,218.724 239.643,219.541 239.643,219.54 C239.643,219.541 236.828,215.492 232.465,215.143 L231.663,215.129 z M211.966,181.319 C206.377,181.562 200.609,182.974 196.417,186.896 C190.985,192.33 189.466,199.611 189.466,199.611 C189.466,199.611 196.026,191.538 200.863,189.856 C205.7,188.174 213.826,187.577 214.609,186.538 C215.393,185.5 214.437,182.123 213.441,181.514 C212.772,181.288 213.249,181.423 211.966,181.319 z" fill="#008ECC" id="Fish_Cutout"/>
      <path d="M139.289,10.146 C163.599,9.515 187.094,16.243 208.759,26.895 C261.009,53.645 274.361,114.256 274.361,114.256 C274.361,114.256 260.259,116.895 230.383,125.395 C178.259,140.395 146.259,176.145 146.259,176.145 C146.259,176.145 144.509,153.145 136.618,105.645 C128.726,58.145 115.176,13.395 115.176,13.395 C122.998,11.091 131.187,10.515 139.289,10.146 z M153.263,40.818 C153.263,40.818 144.71,64.869 155.984,74.923 C170.127,86.653 173.143,85.313 188.867,89.669 C201.145,95.479 195.114,113.701 195.113,113.701 L198.808,112.721 C198.808,112.721 201.576,87.659 195.437,81.738 C189.298,75.817 179.551,71.795 175.485,70.007 C171.42,68.22 168.296,64.31 168.296,64.31 C168.296,64.31 172.82,66.991 177.881,68.443 C182.943,69.896 187.359,71.013 191.129,74.253 C194.898,77.492 198.965,82.328 198.965,82.328 C198.965,82.328 194.898,60.512 185.42,56.043 C175.943,51.574 169.696,53.92 163.988,50.681 C158.28,47.441 153.263,40.818 153.263,40.818 z M218.75,74.033 L217.213,74.042 C213.66,74.668 215.16,74.246 212.656,75.096 C204.448,78.385 202.749,90.48 202.749,90.48 C202.749,90.48 207.378,85.268 209.234,84.039 C211.09,82.81 214.335,83.047 214.335,83.047 C214.335,83.047 208.73,86.758 207.194,89.922 C205.658,93.085 204.276,96.146 204.276,96.146 C204.276,96.146 213.437,97.236 216.926,91.586 C220.416,85.937 220.755,81.181 222.506,79.783 C224.258,78.384 229.009,76.907 229.009,76.907 C225.771,74.872 222.464,74.378 218.75,74.033 z" fill="#63A645" id="Leaf_Cutout"/>
      <path d="M104.981,16.145 C104.981,16.145 109.259,35.145 116.759,70.895 C124.259,106.645 129.104,148.895 129.104,148.895 C129.104,148.895 97.509,132.645 57.578,123.895 C27.647,116.895 12.009,117.145 12.009,117.145 C12.009,117.145 18.009,81.145 44.349,53.145 C70.689,25.145 104.981,16.145 104.981,16.145 z M93.137,88.768 C93.137,88.768 83.817,93.139 79.99,100.487 C76.164,107.834 79.765,111.682 83.105,113.837 C86.445,115.992 91.087,114.349 93.167,109.598 L93.279,109.223 C93.406,108.901 93.367,109.053 93.415,108.771 C93.417,108.763 93.417,108.767 93.416,108.761 C93.876,106.009 93.817,103.539 92.584,100.961 C90.828,97.52 90.939,95.217 91.268,93.769 C91.598,92.321 93.137,88.768 93.137,88.768 z M91.369,102.457 C91.369,102.457 92.28,104.294 92.319,105.371 C92.359,106.991 92.454,106.166 91.979,107.84 C91.638,108.727 90.921,109.309 89.984,108.901 C89.29,108.522 88.758,107.321 89.584,106.18 C90.41,105.038 90.734,104.582 90.931,104.152 C91.129,103.723 91.369,102.457 91.369,102.457 z M69.421,60.227 L68.129,60.238 L66.884,60.339 C53.224,61.806 56.519,75.084 56.518,75.084 C56.519,75.084 48.721,73.488 45.611,78.986 C42.502,84.484 44.772,90.453 51.75,92.89 C58.728,95.326 68.115,94.579 74.43,91.021 C80.744,87.463 89.917,83.017 95.057,83.15 C100.198,83.283 102.653,87.119 102.652,87.119 C102.653,87.119 103.825,78.991 98.859,76.95 C93.893,74.908 91.191,76.273 91.191,76.273 C91.191,76.273 93.099,73.021 89.295,70.013 C85.491,67.005 81.753,70.309 81.753,70.309 C80.261,63.42 76.083,60.864 69.421,60.227 z" fill="#044E95" id="Cloud_Cutout"/>
      <path d="M13.739,126.796 C25.963,126.941 38.03,129.162 49.906,131.895 C95.509,143.395 129.104,162.293 129.104,162.293 C129.104,162.293 134.259,184.145 134.259,227.145 C134.259,270.145 128.291,279.895 128.291,279.895 C128.291,279.895 75.509,277.395 38.009,230.145 C0.509,182.895 9.609,126.895 9.609,126.895 C10.983,126.788 12.363,126.809 13.739,126.796 z M66.645,182.082 C66.792,182.176 66.676,182.102 66.995,182.3 C76.062,187.965 88.121,195.695 93.141,205.226 C96.32,214.043 100.771,237.596 100.77,237.596 C100.771,237.596 104.318,200.902 106.749,201.368 C109.181,201.833 110.268,213.403 110.268,213.403 C110.268,213.403 118.552,194.596 100.844,193.647 C88.84,192.607 77.286,188.542 66.995,182.3 C66.689,182.109 66.806,182.182 66.645,182.082 z M86.873,160.283 C86.713,160.422 86.83,160.32 86.525,160.588 C76.795,168.833 65.224,175.277 52.639,177.747 C34.256,180.905 45.366,201.9 45.366,201.9 C45.366,201.9 44.994,188.268 47.474,187.443 C49.955,186.617 58.448,229.041 58.448,229.041 C58.448,229.041 60.027,201.032 62.2,190.37 C64.986,179.479 78.327,168.411 86.525,160.588 C86.843,160.311 86.727,160.414 86.873,160.283 z M95.714,173.931 C91.226,173.931 87.587,177.68 87.587,182.305 C87.587,186.93 91.226,190.679 95.714,190.679 C100.202,190.679 103.841,186.93 103.841,182.305 C103.841,177.68 100.202,173.931 95.714,173.931 z M55.91,157.182 C51.421,157.182 47.783,160.931 47.783,165.556 C47.783,170.181 51.421,173.93 55.91,173.93 C60.398,173.93 64.037,170.181 64.037,165.556 C64.037,160.931 60.398,157.182 55.91,157.182 z" fill="#FFA509" id="People_Cutout"/>
    </g>
    <g>
      <path d="M299.281,179.663 L303.341,179.663 L303.341,191.621 Q303.341,194.455 304.277,195.714 Q305.213,196.973 307.296,196.973 Q309.287,196.973 310.177,195.774 Q311.067,194.574 311.067,191.911 L311.067,179.663 L314.6,179.663 L314.6,191.647 Q314.6,194.35 314.086,195.767 Q313.572,197.184 312.214,198.226 Q310.355,199.663 307.217,199.663 Q303.855,199.663 301.812,198.133 Q300.401,197.079 299.841,195.635 Q299.281,194.192 299.281,191.608 z" fill="#0193CE"/>
      <path d="M339.722,198.397 Q336.887,199.663 332.958,199.663 Q328.16,199.663 325.483,196.96 Q322.807,194.258 322.807,189.419 Q322.807,184.488 325.503,181.832 Q328.199,179.175 333.196,179.175 Q336.386,179.175 339.537,179.927 L339.537,183.104 Q335.964,181.852 333.552,181.852 Q330.467,181.852 328.792,183.81 Q327.118,185.767 327.118,189.366 Q327.118,192.9 328.918,194.877 Q330.717,196.855 333.921,196.855 Q336.795,196.855 339.722,195.404 z" fill="#0193CE"/>
      <path d="M359.066,199.004 L359.066,195.655 Q362.217,196.973 364.459,196.973 Q366.027,196.973 366.931,196.275 Q367.834,195.576 367.834,194.376 Q367.834,193.427 367.267,192.774 Q366.7,192.122 365.118,191.225 L363.813,190.5 Q361.189,189.024 360.108,187.672 Q359.027,186.321 359.027,184.515 Q359.027,182.102 360.8,180.639 Q362.573,179.175 365.487,179.175 Q367.82,179.175 370.747,179.848 L370.747,182.972 Q367.754,181.852 366.014,181.852 Q364.67,181.852 363.859,182.452 Q363.048,183.051 363.048,184.027 Q363.048,184.831 363.615,185.438 Q364.182,186.044 365.751,186.927 L367.148,187.705 Q369.969,189.287 371.037,190.619 Q372.105,191.95 372.105,193.862 Q372.105,196.578 370.088,198.12 Q368.071,199.663 364.525,199.663 Q362.178,199.663 359.066,199.004 z" fill="#0193CE"/>
      <path d="M378.15,199.175 L385.744,179.663 L389.804,179.663 L397.398,199.175 L393.232,199.175 L391.202,193.967 L383.133,193.967 L381.103,199.175 z M384.135,191.37 L390.2,191.37 L387.167,183.592 z" fill="#0193CE"/>
      <path d="M404.866,199.175 L404.866,179.663 L408.439,179.663 L417.483,192.992 L417.483,179.663 L420.739,179.663 L420.739,199.175 L417.101,199.175 L408.123,185.846 L408.123,199.175 z" fill="#0193CE"/>
      <path d="M435.156,199.175 L435.156,182.34 L428.168,182.34 L428.168,179.663 L446.217,179.663 L446.217,182.34 L439.229,182.34 L439.229,199.175 z" fill="#0193CE"/>
      <path d="M451.51,199.175 L459.104,179.663 L463.164,179.663 L470.758,199.175 L466.592,199.175 L464.562,193.967 L456.493,193.967 L454.463,199.175 z M457.495,191.37 L463.56,191.37 L460.528,183.592 z" fill="#0193CE"/>
      <path d="M490.433,199.175 L490.433,179.663 L497.064,179.663 Q500.004,179.663 501.54,180.771 Q503.076,181.878 503.076,184.001 Q503.076,187.521 498.396,188.984 Q503.867,190.316 503.867,194.35 Q503.867,196.683 502.265,197.929 Q500.663,199.175 497.67,199.175 z M494.256,187.784 L495.218,187.784 Q496.932,187.784 497.941,186.941 Q498.949,186.097 498.949,184.647 Q498.949,183.302 498.138,182.821 Q497.328,182.34 495.073,182.34 L494.256,182.34 z M494.256,196.406 L495.126,196.406 Q497.684,196.406 498.653,195.859 Q499.622,195.312 499.622,193.862 Q499.622,192.372 498.323,191.383 Q497.024,190.395 495.047,190.395 L494.256,190.395 z" fill="#0193CE"/>
      <path d="M510.004,199.175 L517.597,179.663 L521.658,179.663 L529.252,199.175 L525.086,199.175 L523.055,193.967 L514.987,193.967 L512.957,199.175 z M515.989,191.37 L522.054,191.37 L519.021,183.592 z" fill="#0193CE"/>
      <path d="M536.72,199.175 L536.72,179.663 L544.024,179.663 Q549.97,179.663 549.97,184.502 Q549.97,186.308 548.961,187.791 Q547.953,189.274 546.186,190.065 L552.567,199.175 L547.623,199.175 L542.785,191.199 L540.544,191.199 L540.544,199.175 z M540.544,188.523 L541.48,188.523 Q545.896,188.523 545.896,184.95 Q545.896,182.34 541.954,182.34 L540.544,182.34 z" fill="#0193CE"/>
      <path d="M560.049,199.175 L560.049,179.663 L566.68,179.663 Q569.62,179.663 571.156,180.771 Q572.692,181.878 572.692,184.001 Q572.692,187.521 568.012,188.984 Q573.483,190.316 573.483,194.35 Q573.483,196.683 571.881,197.929 Q570.279,199.175 567.287,199.175 z M563.872,187.784 L564.834,187.784 Q566.548,187.784 567.557,186.941 Q568.565,186.097 568.565,184.647 Q568.565,183.302 567.755,182.821 Q566.944,182.34 564.689,182.34 L563.872,182.34 z M563.872,196.406 L564.742,196.406 Q567.3,196.406 568.269,195.859 Q569.238,195.312 569.238,193.862 Q569.238,192.372 567.939,191.383 Q566.641,190.395 564.663,190.395 L563.872,190.395 z" fill="#0193CE"/>
      <path d="M579.62,199.175 L587.214,179.663 L591.274,179.663 L598.868,199.175 L594.702,199.175 L592.672,193.967 L584.603,193.967 L582.573,199.175 z M585.605,191.37 L591.67,191.37 L588.637,183.592 z" fill="#0193CE"/>
      <path d="M606.336,199.175 L606.336,179.663 L613.64,179.663 Q619.586,179.663 619.586,184.502 Q619.586,186.308 618.577,187.791 Q617.569,189.274 615.802,190.065 L622.183,199.175 L617.239,199.175 L612.401,191.199 L610.16,191.199 L610.16,199.175 z M610.16,188.523 L611.096,188.523 Q615.512,188.523 615.512,184.95 Q615.512,182.34 611.57,182.34 L610.16,182.34 z" fill="#0193CE"/>
      <path d="M627.529,199.175 L635.123,179.663 L639.183,179.663 L646.777,199.175 L642.611,199.175 L640.581,193.967 L632.513,193.967 L630.482,199.175 z M633.514,191.37 L639.579,191.37 L636.547,183.592 z" fill="#0193CE"/>
    </g>
  </g>
</svg>
